<?xml version="1.0" encoding="utf-8"?>
<!-- Generator: Adobe Illustrator 18.0.0, SVG Export Plug-In . SVG Version: 6.00 Build 0)  -->
<!DOCTYPE svg PUBLIC "-//W3C//DTD SVG 1.1//EN" "http://www.w3.org/Graphics/SVG/1.1/DTD/svg11.dtd">
<svg version="1.1" id="Warstwa_1" xmlns="http://www.w3.org/2000/svg" xmlns:xlink="http://www.w3.org/1999/xlink" x="0px" y="0px"
	 viewBox="0 0 100 100" enable-background="new 0 0 100 100" xml:space="preserve">
<g>
	<g>
		<rect x="0.5" y="0.5" fill="#2A2A2A" width="99" height="99"/>
		<g>
			<path fill="#50FFEA" d="M99,1v98H1V1H99 M100,0h-1H1H0v1v98v1h1h98h1v-1V1V0L100,0z"/>
		</g>
	</g>
	<linearGradient id="SVGID_1_" gradientUnits="userSpaceOnUse" x1="53.528" y1="99" x2="53.528" y2="1.2745">
		<stop  offset="0" style="stop-color:#1D1D1B;stop-opacity:0"/>
		<stop  offset="1" style="stop-color:#000000"/>
	</linearGradient>
	<polygon opacity="0.86" fill="url(#SVGID_1_)" points="99,99 47.8,99 8.1,59.3 10.1,45.5 16.3,45.5 20.1,49.4 19.4,44.4 25.1,44.4 
		26.3,45.6 29.2,44.4 31,46.2 34.8,44.4 36.1,45.7 42.7,45.1 49.7,52.1 49.8,49.9 47.3,47.5 47.6,46.2 30,28.6 32.9,21 77,17.2 
		99,39.2 	"/>
	<g>
		<g>
			<path fill="#50FFEA" d="M62.6,17.2c-1.7,0-2.8-1.1-4.2-1.3c-1.5-0.2-3.6,1.9-6.8,2.1c-3.2,0.2-21.2-1.3-21.2-1.3L30,28.6
				l29.2,0.4l-4.7,11.4l-0.3,0.8H69c0.2-0.9,0.7-3.1,1.2-5c0.6-2.5,2.1-2.1,2.1-2.1s0-1.7,0-3c0-1.3,2.1-4.7,2.1-4.7s1.3,0,1.3-1.3
				c0-1.3,1.3-8,1.3-8S64.3,17.2,62.6,17.2z"/>
		</g>
		<g>
			<polygon fill="#50FFEA" points="44.8,63.8 42.7,70.1 41.4,70.1 39.7,78.1 37.2,84.1 41.9,84.5 44.8,83.2 45.2,81.5 46.9,81.1 
				47.4,80.3 49.1,79.8 48.6,77.7 50.7,77.3 50.7,81.5 52.4,80.7 52,83.2 53.7,82 54.1,79.8 55.8,79.4 55.8,76.9 56.7,76.9 
				57.5,74.8 55.8,72.2 58.4,70.1 60.9,62.4 44.8,62.4 			"/>
		</g>
	</g>
	<g>
		<g>
			<path fill="#50FFEA" d="M8.1,44.4H11c1.9,0,3.1,0.1,3.8,0.3c0.7,0.2,1.2,0.5,1.5,0.8c0.3,0.4,0.6,0.8,0.6,1.3
				c0.1,0.5,0.1,1.4,0.1,2.8v5.2c0,1.3-0.1,2.2-0.2,2.7c-0.1,0.5-0.3,0.8-0.7,1.1c-0.3,0.3-0.7,0.4-1.2,0.5
				c-0.5,0.1-1.2,0.2-2.1,0.2H8.1V44.4z M11.9,47v9.8c0.6,0,0.9-0.1,1-0.3c0.1-0.2,0.2-0.8,0.2-1.8v-5.8c0-0.7,0-1.1-0.1-1.3
				c0-0.2-0.1-0.3-0.3-0.4C12.6,47,12.4,47,11.9,47z"/>
		</g>
		<g>
			<path fill="#50FFEA" d="M25,44.4l2.2,14.9h-4L23,56.6h-1.4l-0.2,2.7h-4l2-14.9H25z M22.9,54c-0.2-1.7-0.4-3.8-0.6-6.3
				c-0.4,2.9-0.6,4.9-0.7,6.3H22.9z"/>
		</g>
		<g>
			<path fill="#50FFEA" d="M34.8,44.4L32,53.9v5.4h-3.6v-5.4l-2.7-9.5h3.6c0.6,2.9,0.9,4.9,0.9,5.9c0.2-1.6,0.6-3.6,1.1-5.9H34.8z"
				/>
		</g>
		<g>
			<path fill="#50FFEA" d="M43.5,48.9h-3.6v-1.1c0-0.5,0-0.8-0.1-1c-0.1-0.1-0.2-0.2-0.5-0.2c-0.2,0-0.4,0.1-0.5,0.3
				s-0.2,0.5-0.2,0.9c0,0.5,0.1,0.9,0.2,1.1c0.1,0.3,0.5,0.6,1.1,0.9c1.7,1,2.8,1.9,3.3,2.5c0.4,0.7,0.7,1.7,0.7,3.2
				c0,1.1-0.1,1.8-0.4,2.3c-0.2,0.5-0.7,0.9-1.4,1.3c-0.7,0.3-1.5,0.5-2.5,0.5c-1,0-1.9-0.2-2.7-0.6c-0.7-0.4-1.2-0.9-1.4-1.5
				c-0.2-0.6-0.3-1.5-0.3-2.6v-1h3.6v1.8c0,0.6,0.1,0.9,0.2,1.1c0.1,0.2,0.3,0.2,0.5,0.2c0.3,0,0.4-0.1,0.6-0.3
				c0.1-0.2,0.2-0.5,0.2-0.9c0-0.9-0.1-1.5-0.4-1.7c-0.2-0.3-0.9-0.7-1.8-1.4c-1-0.6-1.6-1.1-1.9-1.4c-0.3-0.3-0.6-0.7-0.8-1.2
				c-0.2-0.5-0.3-1.2-0.3-2c0-1.1,0.1-2,0.4-2.5c0.3-0.5,0.8-0.9,1.4-1.2c0.7-0.3,1.4-0.4,2.4-0.4c1,0,1.9,0.2,2.6,0.5
				c0.7,0.3,1.2,0.7,1.4,1.2c0.2,0.5,0.3,1.3,0.3,2.5V48.9z"/>
		</g>
		<g>
			<path fill="#50FFEA" d="M55.8,44.4v3h-2.3v11.9h-3.9V47.4h-2.3v-3H55.8z"/>
		</g>
		<g>
			<path fill="#50FFEA" d="M65.4,53.1c0,1.5,0,2.6-0.1,3.2c-0.1,0.6-0.3,1.2-0.7,1.7c-0.4,0.5-0.9,0.9-1.5,1.2
				c-0.6,0.3-1.4,0.4-2.2,0.4c-0.8,0-1.5-0.1-2.2-0.4c-0.6-0.3-1.1-0.7-1.5-1.2c-0.4-0.5-0.6-1.1-0.7-1.7c-0.1-0.6-0.1-1.7-0.1-3.2
				v-2.6c0-1.5,0-2.6,0.1-3.2c0.1-0.6,0.3-1.2,0.7-1.7c0.4-0.5,0.9-0.9,1.5-1.2c0.6-0.3,1.4-0.4,2.2-0.4c0.8,0,1.5,0.1,2.2,0.4
				c0.6,0.3,1.1,0.7,1.5,1.2c0.4,0.5,0.6,1.1,0.7,1.7c0.1,0.6,0.1,1.7,0.1,3.2V53.1z M61.5,48.2c0-0.7,0-1.1-0.1-1.3
				c-0.1-0.2-0.2-0.3-0.5-0.3c-0.2,0-0.4,0.1-0.5,0.2s-0.2,0.6-0.2,1.4v7c0,0.9,0,1.4,0.1,1.6c0.1,0.2,0.2,0.3,0.5,0.3
				c0.3,0,0.4-0.1,0.5-0.4c0.1-0.2,0.1-0.8,0.1-1.7V48.2z"/>
		</g>
		<g>
			<path fill="#50FFEA" d="M69.8,44.4h2.9c1.9,0,3.1,0.1,3.8,0.3c0.7,0.2,1.2,0.5,1.5,0.8c0.3,0.4,0.6,0.8,0.6,1.3
				c0.1,0.5,0.1,1.4,0.1,2.8v5.2c0,1.3-0.1,2.2-0.2,2.7c-0.1,0.5-0.3,0.8-0.7,1.1c-0.3,0.3-0.7,0.4-1.2,0.5
				c-0.5,0.1-1.2,0.2-2.1,0.2h-4.9V44.4z M73.7,47v9.8c0.6,0,0.9-0.1,1-0.3c0.1-0.2,0.2-0.8,0.2-1.8v-5.8c0-0.7,0-1.1-0.1-1.3
				c0-0.2-0.1-0.3-0.3-0.4C74.4,47,74.1,47,73.7,47z"/>
		</g>
		<g>
			<path fill="#50FFEA" d="M83.9,44.4v14.9H80V44.4H83.9z"/>
		</g>
		<g>
			<path fill="#50FFEA" d="M85.3,44.4h6.5v3h-2.6v2.8h2.4V53h-2.4v3.3H92v3h-6.7V44.4z"/>
		</g>
	</g>
</g>
</svg>
