<?xml version="1.0" encoding="UTF-8"?>
<!-- Svg Vector Icons : http://www.onlinewebfonts.com/icon -->
<!DOCTYPE svg PUBLIC "-//W3C//DTD SVG 1.1//EN" "http://www.w3.org/Graphics/SVG/1.1/DTD/svg11.dtd">
<svg version="1.1" xmlns="http://www.w3.org/2000/svg" xmlns:xlink="http://www.w3.org/1999/xlink" x="0px" y="0px" viewBox="0 0 1000 1000" enable-background="new 0 0 1000 1000" xml:space="preserve">
<metadata> Svg Vector Icons : http://www.onlinewebfonts.com/icon </metadata>
<g><g transform="translate(0.000000,511.000000) scale(0.100000,-0.100000)"><path style="fill:#ffffff;" d="M4731.1,5003.7c-42.8-6.8-164.6-31.6-268.3-58.6c-976.2-239-1729.2-1091.2-1956.9-2218.4c-63.1-311.1-56.4-937.9,11.3-1246.7c142-638,405.8-1125,829.7-1535.3c338.2-326.9,653.8-511.8,1061.9-626.7c198.4-54.1,257-60.9,581.7-58.6c401.3,0,572.7,33.8,908.6,175.8c802.6,338.2,1420.3,1165.6,1596.2,2132.8c51.9,290.8,54.1,843.2,0,1116c-225.4,1181.4-1005.5,2058.3-2031.3,2279.3C5303.8,4999.1,4875.4,5021.7,4731.1,5003.7z"/><path style="fill:#ffffff;" d="M2233.1-1622.3c-698.9-376.5-1318.9-721.4-1379.8-766.5c-164.6-119.5-410.3-394.5-491.5-545.6c-96.9-184.9-139.8-363-139.8-595.2c0-574.9,390-1082.2,940.1-1224.2c121.7-31.5,545.6-36.1,3832.7-36.1c4064.9,0,3803.3-9,4107.7,137.5c164.6,81.2,392.3,293.1,487,457.7c236.7,405.8,250.2,861.2,40.6,1260.3c-90.2,171.3-349.5,453.1-525.3,572.6c-56.4,38.3-624.5,349.4-1262.5,694.4c-638,342.7-1208.4,649.3-1264.8,680.9l-103.7,56.4l-211.9-103.7c-435.1-209.7-795.8-290.8-1271.5-290.8c-473.4,2.2-861.2,92.4-1278.3,302.1c-96.9,49.6-182.6,87.9-191.6,87.9C3509.2-937,2932-1245.8,2233.1-1622.3z"/></g></g>
</svg>