<?xml version="1.0" encoding="iso-8859-1"?>
<!-- Generator: Adobe Illustrator 19.0.0, SVG Export Plug-In . SVG Version: 6.00 Build 0)  -->
<svg version="1.1" id="Capa_1" xmlns="http://www.w3.org/2000/svg" xmlns:xlink="http://www.w3.org/1999/xlink" x="0px" y="0px"
	 viewBox="0 0 490 490" style="enable-background:new 0 0 490 490;" xml:space="preserve">
<path d="M420.914,0H69.086C30.999,0,0,30.999,0,69.086v351.829C0,459.001,30.999,490,69.086,490h351.829
	C459.001,490,490,459.001,490,420.914V69.086C490,30.999,459.001,0,420.914,0z M157.651,132.647
	c23.55,0,42.641,19.091,42.641,42.641c0,23.551-19.091,42.642-42.641,42.642c-23.551,0-42.642-19.091-42.642-42.642
	C115.009,151.738,134.1,132.647,157.651,132.647z M245,398.125c-69.325,0-125.715-56.39-125.715-125.715h30.625
	c0,52.427,42.663,95.09,95.09,95.09s95.09-42.663,95.09-95.09h30.625C370.715,341.735,314.325,398.125,245,398.125z M332.349,217.93
	c-23.55,0-42.641-19.091-42.641-42.642c0-23.55,19.091-42.641,42.641-42.641c23.551,0,42.642,19.091,42.642,42.641
	C374.991,198.839,355.9,217.93,332.349,217.93z"/>
<g>
</g>
<g>
</g>
<g>
</g>
<g>
</g>
<g>
</g>
<g>
</g>
<g>
</g>
<g>
</g>
<g>
</g>
<g>
</g>
<g>
</g>
<g>
</g>
<g>
</g>
<g>
</g>
<g>
</g>
</svg>
