<?xml version="1.0" encoding="iso-8859-1"?>
<!-- Generator: Adobe Illustrator 19.0.0, SVG Export Plug-In . SVG Version: 6.00 Build 0)  -->
<svg xmlns="http://www.w3.org/2000/svg" xmlns:xlink="http://www.w3.org/1999/xlink" version="1.1" id="Capa_1" x="0px" y="0px" viewBox="0 0 490 490" style="enable-background:new 0 0 490 490;" xml:space="preserve" width="512px" height="512px">
<path d="M420.911,0H69.089C30.995,0,0.004,30.999,0.004,69.086v351.829C0.004,459.001,30.995,490,69.089,490h351.821  c38.087,0,69.086-30.999,69.086-69.086V69.086C489.996,30.999,458.997,0,420.911,0z M157.652,217.855  c-23.55,0-42.642-19.091-42.642-42.642c0-23.55,19.092-42.641,42.642-42.641s42.642,19.091,42.642,42.641  C200.294,198.764,181.202,217.855,157.652,217.855z M291.233,352.038h-59.934v-86.776h30.625v56.151h29.309V352.038z   M332.351,217.855c-23.551,0-42.642-19.091-42.642-42.642c0-23.55,19.091-42.641,42.642-42.641c23.55,0,42.641,19.091,42.641,42.641  C374.992,198.764,355.901,217.855,332.351,217.855z" fill="#00070d"/>
<g>
</g>
<g>
</g>
<g>
</g>
<g>
</g>
<g>
</g>
<g>
</g>
<g>
</g>
<g>
</g>
<g>
</g>
<g>
</g>
<g>
</g>
<g>
</g>
<g>
</g>
<g>
</g>
<g>
</g>
</svg>
