<?xml version="1.0" encoding="UTF-8"?>
<!-- Svg Vector Icons : http://www.onlinewebfonts.com/icon -->
<!DOCTYPE svg PUBLIC "-//W3C//DTD SVG 1.1//EN" "http://www.w3.org/Graphics/SVG/1.1/DTD/svg11.dtd">
<svg version="1.1" xmlns="http://www.w3.org/2000/svg" xmlns:xlink="http://www.w3.org/1999/xlink" x="0px" y="0px" viewBox="0 0 1000 1000" enable-background="new 0 0 1000 1000" xml:space="preserve">
<metadata> Svg Vector Icons : http://www.onlinewebfonts.com/icon </metadata>
<g><path d="M944.1,55.9H55.9C30.5,55.9,10,76.4,10,101.8v658.4c0,25.4,20.5,45.9,45.9,45.9h61.2V898c0,3.2,0.3,6.3,0.9,9.3c0.4,2.1,1.1,4,1.9,6.1c0.3,0.8,0.5,1.8,0.8,2.6c0.7,1.7,1.8,3.4,2.7,5c0.6,0.9,0.9,2,1.6,2.8c1.5,2.2,3.3,4.3,5.1,6.2c0.2,0.2,0.3,0.4,0.5,0.7c8.2,8.2,19.5,13.3,31.9,13.4c0.2,0,0.4,0.1,0.6,0.1c12.7,0,24.2-5.2,32.5-13.4L320,806.3h624.1c25.4,0,45.9-20.5,45.9-45.9V101.8C990,76.4,969.5,55.9,944.1,55.9L944.1,55.9z M270.4,530.6c-50.8,0-91.9-41.1-91.9-91.9s41.1-91.9,91.9-91.9c50.8,0,91.9,41.1,91.9,91.9S321,530.6,270.4,530.6z M500,530.6c-50.8,0-91.9-41.1-91.9-91.9s41.1-91.9,91.9-91.9s91.9,41.1,91.9,91.9S550.8,530.6,500,530.6z M729.7,530.6c-50.8,0-91.9-41.1-91.9-91.9s41.1-91.9,91.9-91.9c50.8,0,91.9,41.1,91.9,91.9C821.6,489.5,780.4,530.6,729.7,530.6z"/></g>
</svg>