<?xml version="1.0" encoding="UTF-8"?>
<!-- Svg Vector Icons : http://www.onlinewebfonts.com/icon -->
<!DOCTYPE svg PUBLIC "-//W3C//DTD SVG 1.1//EN" "http://www.w3.org/Graphics/SVG/1.1/DTD/svg11.dtd">
<svg version="1.1" xmlns="http://www.w3.org/2000/svg" xmlns:xlink="http://www.w3.org/1999/xlink" x="0px" y="0px" viewBox="0 0 1000 1000" enable-background="new 0 0 1000 1000" xml:space="preserve">
<metadata> Svg Vector Icons : http://www.onlinewebfonts.com/icon </metadata>
<g><path d="M279.6,128.4C134.2,129.7,15.3,258.1,12.4,402.8l-0.8,0L10,988l585.9,1.6l0-0.1c144.4-2.5,267.8-121.2,270.7-265.2h0.2l1.6-594.4L279.6,128.4L279.6,128.4z M753.8,724c-2.6,86.6-68.8,150.1-155.4,152.8l-476.1-1.3l1.3-470.7v0c1.8-88.8,66.3-163.9,155.6-164.1l475.7,1.3l-1.3,482L753.8,724z"/><path d="M940.2,10.5H361.5v49.8h578.7V639H990V60.3V10.5H940.2z"/><path d="M266.1,664.1h346.3v69.6H266.1V664.1z"/><path d="M266.1,524.7h346.3v69.6H266.1V524.7z"/><path d="M266.1,384.2h346.3v69.6H266.1V384.2z"/></g>
</svg>