<?xml version="1.0" encoding="UTF-8"?>
<!-- Svg Vector Icons : http://www.onlinewebfonts.com/icon -->
<!DOCTYPE svg PUBLIC "-//W3C//DTD SVG 1.1//EN" "http://www.w3.org/Graphics/SVG/1.1/DTD/svg11.dtd">
<svg version="1.1" xmlns="http://www.w3.org/2000/svg" xmlns:xlink="http://www.w3.org/1999/xlink" x="0px" y="0px" viewBox="0 0 1000 1000" enable-background="new 0 0 1000 1000" xml:space="preserve">
<metadata> Svg Vector Icons : http://www.onlinewebfonts.com/icon </metadata>
<g><g><path style="fill:#ffffff;" d="M935.6,831.3c0,38.7,22.1,72.2,54.4,88.6v13.6c-9,1.2-18.3,1.9-27.6,1.9c-57.9,0-110-24.3-146.9-63.2c-22.3,5.9-45.9,9.1-70.4,9.1c-135.3,0-245-97.5-245-217.8c0-120.3,109.7-217.8,245-217.8s245,97.5,245,217.8c0,47.1-16.8,90.7-45.4,126.3C938.8,802.5,935.6,816.5,935.6,831.3L935.6,831.3z M206.2,252.8c-56.3,45.8-87.3,104.6-87.3,165.7c0,34.3,9.5,67.5,28.3,98.8c19.4,32.3,48.5,61.7,84.2,85.3c25.8,17,43.2,44.2,47.8,74.8c1.5,10.2,2.5,20.5,2.9,30.7c6.4-5.3,12.5-10.9,18.6-17c20.5-20.5,48.3-31.9,77-31.9c4.6,0,9.2,0.3,13.7,0.9c17.8,2.3,36,3.4,54.1,3.4v108.9c-23.1,0-45.7-1.5-67.8-4.3c-93.6,93.6-205.2,110.3-313.2,112.8V858c58.3-28.6,108.9-80.6,108.9-140.1c0-8.3-0.6-16.4-1.8-24.4C73,628.7,10,529.6,10,418.5C10,223.1,205,64.7,445.6,64.7c236.9,0,429.6,153.6,435.4,345c-35-15.6-73-25-112.5-27.7c-9.8-47.7-38.6-92.6-83.6-129.1c-30-24.4-65.4-43.7-105.2-57.4c-42.3-14.5-87.4-21.9-134.1-21.9c-46.7,0-91.9,7.4-134.1,21.9C271.7,209.1,236.3,228.4,206.2,252.8L206.2,252.8z"/></g></g>
</svg>