<?xml version="1.0" encoding="UTF-8"?>
<!-- Svg Vector Icons : http://www.onlinewebfonts.com/icon -->
<!DOCTYPE svg PUBLIC "-//W3C//DTD SVG 1.1//EN" "http://www.w3.org/Graphics/SVG/1.1/DTD/svg11.dtd">
<svg version="1.1" xmlns="http://www.w3.org/2000/svg" xmlns:xlink="http://www.w3.org/1999/xlink" x="0px" y="0px" viewBox="0 0 1000 1000" enable-background="new 0 0 1000 1000" xml:space="preserve">
<metadata> Svg Vector Icons : http://www.onlinewebfonts.com/icon </metadata>
<g><path style="fill:#ffffff;" d="M500,40.6c33.8,0,61.3,27.4,61.3,61.2c0,33.8-27.4,61.3-61.3,61.3c-33.8,0-61.2-27.4-61.2-61.3C438.7,68,466.2,40.6,500,40.6z M928.7,224.4c33.8,0,61.3,27.4,61.3,61.2c0,33.8-27.4,61.3-61.3,61.3c-33.8,0-61.3-27.4-61.3-61.3C867.5,251.8,894.9,224.4,928.7,224.4z M71.2,224.4c33.8,0,61.3,27.4,61.3,61.2c0,33.8-27.4,61.3-61.3,61.3c-33.8,0-61.2-27.4-61.2-61.3C10,251.8,37.4,224.4,71.2,224.4z M255,561.3l91.9,306.3h306.3L745,561.3c-153.1,0-245-153.1-245-153.1S408.1,561.3,255,561.3z M500,193.7c0,0,91.9,490,398.1,183.7L714.4,959.4H285.6c-71.5-183.8-183.8-581.9-183.8-581.9C408.1,683.7,500,193.7,500,193.7z M359.7,796.6L342.2,750h314l-17.4,46.5H359.7z"/></g>
</svg>